<svg version="1.1" id="Layer_1" xmlns="http://www.w3.org/2000/svg" xmlns:xlink="http://www.w3.org/1999/xlink" x="0px" y="0px"
	 width="100%" viewBox="0 0 500 500" enable-background="new 0 0 500 500" xml:space="preserve">
<path fill="#FAC646" opacity="1.000000" stroke="none" 
	d="
M376.531342,1.000000 
	C376.127502,3.112200 375.429993,5.318071 374.356812,7.322845 
	C350.031586,52.763680 325.663239,98.181427 301.316925,143.610977 
	C300.635620,144.882263 300.107178,146.235504 299.274994,148.060318 
	C331.357544,148.060318 362.914368,148.060318 395.306335,148.060318 
	C317.902618,265.078796 240.928345,381.447998 163.954086,497.817200 
	C163.611313,497.691772 163.268539,497.566376 162.925751,497.440979 
	C183.245193,412.092499 203.564636,326.744019 223.990753,240.947449 
	C184.873398,240.947449 146.100189,240.947449 106.635124,240.947449 
	C107.148285,239.050171 107.424149,237.657928 107.896767,236.336029 
	C135.645065,158.727386 163.409042,81.124352 191.182510,3.524715 
	C191.404556,2.904337 191.776413,2.337588 192.039154,1.372898 
	C253.354233,1.000000 314.708466,1.000000 376.531342,1.000000 
z"/>
</svg>