<svg version="1.1" id="Layer_1" xmlns="http://www.w3.org/2000/svg" xmlns:xlink="http://www.w3.org/1999/xlink" x="0px" y="0px"
	 width="100%" viewBox="0 0 500 500" enable-background="new 0 0 500 500" xml:space="preserve">
<path fill="#FBC646" opacity="1.000000" stroke="none" 
	d="
M492.120361,457.104919 
	C491.374390,458.006256 490.488129,458.991028 489.591156,459.000916 
	C479.595520,459.111023 469.598175,459.070557 459.601318,459.070587 
	C441.107086,459.070648 422.611603,458.955170 404.119659,459.161316 
	C400.086426,459.206299 398.149292,458.209167 396.725677,454.114624 
	C388.051178,429.165283 379.005402,404.345093 370.078186,379.483673 
	C369.595398,378.139160 369.065369,376.811584 368.050049,374.142609 
	C358.005890,404.212158 348.368500,433.064087 338.751434,461.855042 
	C307.093475,461.855042 275.803650,461.855042 244.207153,461.855042 
	C244.207153,331.347992 244.207153,200.984879 244.207153,70.311012 
	C275.366730,70.311012 306.580933,70.311012 338.061890,70.311012 
	C338.061890,105.045311 338.061890,139.648544 338.061890,174.251785 
	C338.441467,174.351990 338.821075,174.452194 339.200653,174.552399 
	C350.809753,139.754227 362.418854,104.956062 374.038879,70.125145 
	C405.601532,70.125145 436.907806,70.125145 468.733948,70.125145 
	C468.029449,72.629562 467.475189,74.966591 466.718170,77.235962 
	C455.938721,109.548813 445.077423,141.834427 434.346191,174.163254 
	C422.549774,209.701035 410.824524,245.262711 399.245605,280.871643 
	C398.587219,282.896271 398.823456,285.827484 399.834656,287.689911 
	C430.455994,344.088501 461.227264,400.405670 492.120361,457.104919 
z"/>
<path fill="#FAC546" opacity="1.000000" stroke="none" 
	d="
M64.429581,103.421112 
	C68.066780,93.366936 71.585838,83.684700 74.961777,73.952820 
	C75.751862,71.675240 76.651276,70.423599 79.432053,70.429482 
	C126.087784,70.528145 172.743759,70.509422 219.399689,70.529984 
	C219.871323,70.530190 220.342896,70.707184 221.728363,70.984695 
	C201.351349,108.921028 181.135956,146.556442 160.575546,184.834198 
	C185.658661,184.834198 210.162567,184.834198 236.266098,184.834198 
	C175.217819,277.017700 114.893311,368.108307 54.568798,459.198914 
	C54.244667,459.050995 53.920536,458.903076 53.596405,458.755157 
	C69.516632,392.065887 85.436859,325.376617 101.485764,258.148346 
	C70.345436,258.148346 39.911366,258.148346 8.980929,258.148346 
	C27.530146,206.346725 45.894691,155.060837 64.429581,103.421112 
z"/>
</svg>
