<svg version="1.1" id="Layer_1" xmlns="http://www.w3.org/2000/svg" xmlns:xlink="http://www.w3.org/1999/xlink" x="0px" y="0px"
	 width="100%" viewBox="0 0 500 500" enable-background="new 0 0 500 500" xml:space="preserve">
<path fill="#ff47f9" opacity="1.000000" stroke="none" 
	d="
M242.025635,468.000275 
	C238.544266,468.000275 235.558121,468.000275 232.059875,468.000275 
	C232.059875,379.950958 232.059875,292.100372 232.059875,204.249786 
	C231.687958,204.116302 231.316040,203.982819 230.944107,203.849335 
	C173.427719,290.999756 115.911331,378.150146 58.394939,465.300568 
	C58.062840,465.123962 57.730740,464.947357 57.398643,464.770752 
	C73.911987,395.295105 90.425331,325.819458 107.123917,255.564453 
	C75.069221,255.564453 43.396191,255.564453 11.020688,255.564453 
	C16.262722,240.812576 21.178495,226.924744 26.131472,213.050186 
	C43.786682,163.593460 61.500923,114.157684 79.026299,64.655022 
	C80.374443,60.847008 82.148041,59.719086 86.125259,59.778217 
	C103.121063,60.030895 120.122810,59.927658 137.122223,59.886387 
	C199.271469,59.735497 261.420624,59.557304 323.569824,59.390308 
	C325.546478,59.384998 327.523132,59.389633 329.932556,59.389633 
	C329.932556,95.652657 329.932556,131.558701 329.932556,167.464752 
	C330.303589,167.581085 330.674622,167.697433 331.045654,167.813766 
	C331.607330,166.487961 332.262787,165.193451 332.716888,163.831787 
	C343.817993,130.545441 354.910339,97.256157 365.956848,63.951675 
	C366.823730,61.338039 367.380432,59.271858 371.107239,59.292881 
	C401.938721,59.466789 432.771576,59.392784 463.604034,59.403923 
	C464.256104,59.404160 464.908112,59.525154 466.178894,59.651176 
	C465.652740,61.527786 465.250275,63.236652 464.697205,64.895309 
	C453.282562,99.126953 441.794739,133.334290 430.437592,167.584946 
	C418.225189,204.414764 406.175110,241.298447 393.914215,278.112000 
	C392.810822,281.424957 393.113159,283.992126 394.764557,287.010895 
	C426.041382,344.184723 457.220886,401.411743 488.416534,458.629913 
	C489.436340,460.500427 490.412415,462.394775 491.791016,465.000214 
	C490.009430,465.000214 488.780121,465.000183 487.550781,465.000183 
	C457.551636,465.000214 427.552094,464.933411 397.553802,465.092041 
	C394.132019,465.110138 392.763275,464.101166 391.632782,460.890015 
	C381.810364,432.989929 371.771118,405.166168 361.317688,375.983490 
	C350.847229,407.327820 340.752716,437.546753 330.579834,468.000275 
	C301.158417,468.000275 271.839630,468.000275 242.025635,468.000275 
M228.543976,67.089905 
	C208.598175,104.329826 188.652374,141.569748 168.551453,179.099289 
	C190.208069,179.099289 210.924866,179.099289 231.630493,179.099289 
	C231.630493,140.138199 231.630493,101.586159 231.630493,61.856079 
	C230.337250,64.038361 229.619431,65.249657 228.543976,67.089905 
z"/>
</svg>